<svg xmlns="http://www.w3.org/2000/svg" xmlns:xlink="http://www.w3.org/1999/xlink" width="500" zoomAndPan="magnify" viewBox="0 0 375 374.999991" height="500" preserveAspectRatio="xMidYMid meet" version="1.2"><defs><clipPath id="87d1f4c410"><path d="M 60 43.476562 L 200 43.476562 L 200 256.476562 L 60 256.476562 Z M 60 43.476562 "/></clipPath><clipPath id="8ca1bf0dc5"><path d="M 181 43.476562 L 321.449219 43.476562 L 321.449219 256.476562 L 181 256.476562 Z M 181 43.476562 "/></clipPath></defs><g id="fed08787d6"><g clip-rule="nonzero" clip-path="url(#87d1f4c410)"><path style=" stroke:none;fill-rule:nonzero;fill:#152039;fill-opacity:1;" d="M 90.609375 256.175781 L 89.25 256.195312 C 87.871094 256.214844 86.5 256.132812 85.132812 255.953125 C 83.765625 255.773438 82.417969 255.496094 81.089844 255.121094 C 79.761719 254.742188 78.46875 254.273438 77.210938 253.710938 C 75.953125 253.148438 74.742188 252.496094 73.578125 251.757812 C 72.414062 251.019531 71.308594 250.199219 70.261719 249.300781 C 69.21875 248.398438 68.242188 247.429688 67.335938 246.390625 C 66.433594 245.347656 65.609375 244.246094 64.863281 243.085938 C 64.117188 241.925781 63.460938 240.71875 62.890625 239.460938 C 62.324219 238.207031 61.847656 236.914062 61.464844 235.589844 C 61.082031 234.265625 60.796875 232.917969 60.613281 231.550781 C 60.425781 230.1875 60.335938 228.8125 60.351562 227.433594 C 60.363281 226.054688 60.476562 224.683594 60.6875 223.320312 C 60.898438 221.957031 61.207031 220.617188 61.613281 219.300781 C 62.019531 217.980469 62.519531 216.699219 63.109375 215.453125 C 63.703125 214.207031 64.382812 213.011719 65.148438 211.867188 C 65.914062 210.71875 66.757812 209.632812 67.679688 208.609375 L 106.429688 165.617188 C 107.03125 164.949219 107.605469 164.25 108.140625 163.527344 C 108.679688 162.800781 109.183594 162.050781 109.648438 161.28125 C 110.117188 160.507812 110.546875 159.714844 110.9375 158.902344 C 111.328125 158.085938 111.683594 157.257812 111.996094 156.410156 C 112.308594 155.5625 112.578125 154.703125 112.8125 153.832031 C 113.042969 152.957031 113.230469 152.078125 113.378906 151.1875 C 113.527344 150.296875 113.628906 149.402344 113.691406 148.5 C 113.753906 147.597656 113.773438 146.699219 113.75 145.796875 C 113.726562 144.894531 113.660156 143.992188 113.550781 143.097656 C 113.445312 142.203125 113.292969 141.3125 113.097656 140.429688 C 112.90625 139.550781 112.671875 138.679688 112.394531 137.820312 C 112.121094 136.960938 111.804688 136.113281 111.445312 135.285156 C 111.089844 134.457031 110.695312 133.644531 110.261719 132.855469 C 109.828125 132.0625 109.359375 131.292969 108.851562 130.542969 C 108.347656 129.796875 107.804688 129.074219 107.230469 128.378906 C 106.65625 127.683594 106.050781 127.015625 105.410156 126.378906 L 71.546875 92.515625 C 53.746094 74.710938 66.074219 44.261719 91.253906 43.859375 C 93.09375 43.828125 94.921875 43.976562 96.734375 44.300781 C 98.546875 44.625 100.308594 45.121094 102.027344 45.785156 C 103.742188 46.453125 105.378906 47.277344 106.9375 48.261719 C 108.492188 49.246094 109.941406 50.371094 111.28125 51.632812 L 190.84375 126.765625 C 191.539062 127.421875 192.199219 128.109375 192.824219 128.828125 C 193.445312 129.550781 194.035156 130.300781 194.582031 131.082031 C 195.132812 131.863281 195.640625 132.667969 196.109375 133.496094 C 196.578125 134.328125 197.003906 135.179688 197.386719 136.054688 C 197.769531 136.929688 198.105469 137.820312 198.398438 138.726562 C 198.691406 139.636719 198.941406 140.554688 199.140625 141.488281 C 199.34375 142.421875 199.496094 143.359375 199.601562 144.308594 C 199.707031 145.257812 199.765625 146.207031 199.777344 147.160156 C 199.789062 148.113281 199.753906 149.066406 199.667969 150.015625 C 199.582031 150.96875 199.453125 151.910156 199.273438 152.847656 C 199.09375 153.785156 198.867188 154.710938 198.59375 155.625 C 198.324219 156.539062 198.007812 157.4375 197.644531 158.320312 C 197.28125 159.203125 196.875 160.0625 196.425781 160.90625 C 195.976562 161.746094 195.488281 162.5625 194.957031 163.355469 C 194.425781 164.148438 193.855469 164.914062 193.25 165.648438 C 192.640625 166.382812 192 167.085938 191.320312 167.757812 L 110.257812 247.9375 C 108.960938 249.222656 107.550781 250.371094 106.03125 251.382812 C 104.515625 252.398438 102.914062 253.257812 101.230469 253.960938 C 99.546875 254.667969 97.8125 255.207031 96.027344 255.578125 C 94.238281 255.953125 92.433594 256.152344 90.609375 256.175781 Z M 90.609375 256.175781 "/></g><g clip-rule="nonzero" clip-path="url(#8ca1bf0dc5)"><path style=" stroke:none;fill-rule:nonzero;fill:#152039;fill-opacity:1;" d="M 212.042969 256.175781 L 210.6875 256.195312 C 209.308594 256.214844 207.9375 256.132812 206.570312 255.953125 C 205.199219 255.773438 203.855469 255.496094 202.527344 255.121094 C 201.199219 254.742188 199.90625 254.273438 198.648438 253.710938 C 197.390625 253.148438 196.175781 252.496094 195.011719 251.757812 C 193.847656 251.019531 192.742188 250.199219 191.699219 249.300781 C 190.652344 248.398438 189.679688 247.429688 188.773438 246.390625 C 187.867188 245.347656 187.042969 244.246094 186.300781 243.085938 C 185.554688 241.925781 184.898438 240.71875 184.328125 239.460938 C 183.757812 238.207031 183.28125 236.914062 182.902344 235.589844 C 182.519531 234.265625 182.234375 232.917969 182.046875 231.550781 C 181.859375 230.1875 181.773438 228.8125 181.785156 227.433594 C 181.800781 226.054688 181.910156 224.683594 182.121094 223.320312 C 182.335938 221.957031 182.644531 220.617188 183.050781 219.300781 C 183.457031 217.980469 183.953125 216.699219 184.546875 215.453125 C 185.136719 214.207031 185.816406 213.011719 186.582031 211.867188 C 187.347656 210.71875 188.195312 209.632812 189.117188 208.609375 L 227.863281 165.617188 C 228.46875 164.949219 229.039062 164.25 229.578125 163.527344 C 230.117188 162.800781 230.621094 162.050781 231.085938 161.28125 C 231.554688 160.507812 231.984375 159.714844 232.375 158.902344 C 232.765625 158.085938 233.117188 157.257812 233.429688 156.410156 C 233.742188 155.5625 234.015625 154.703125 234.246094 153.832031 C 234.476562 152.957031 234.667969 152.078125 234.8125 151.1875 C 234.960938 150.296875 235.066406 149.402344 235.128906 148.5 C 235.191406 147.597656 235.210938 146.699219 235.1875 145.796875 C 235.164062 144.894531 235.097656 143.992188 234.988281 143.097656 C 234.878906 142.203125 234.730469 141.3125 234.535156 140.429688 C 234.34375 139.550781 234.105469 138.679688 233.832031 137.820312 C 233.554688 136.960938 233.238281 136.117188 232.882812 135.285156 C 232.527344 134.457031 232.132812 133.644531 231.699219 132.855469 C 231.265625 132.0625 230.796875 131.292969 230.289062 130.546875 C 229.78125 129.796875 229.242188 129.074219 228.667969 128.378906 C 228.09375 127.683594 227.484375 127.015625 226.847656 126.378906 L 192.984375 92.515625 C 175.179688 74.710938 187.511719 44.261719 212.683594 43.859375 C 214.523438 43.828125 216.347656 43.976562 218.160156 44.300781 C 219.972656 44.625 221.738281 45.121094 223.453125 45.789062 C 225.167969 46.453125 226.804688 47.28125 228.359375 48.261719 C 229.914062 49.246094 231.363281 50.371094 232.699219 51.632812 L 312.273438 126.765625 C 312.96875 127.421875 313.628906 128.109375 314.253906 128.832031 C 314.878906 129.550781 315.464844 130.304688 316.011719 131.082031 C 316.5625 131.863281 317.070312 132.667969 317.539062 133.5 C 318.007812 134.332031 318.433594 135.183594 318.816406 136.054688 C 319.199219 136.929688 319.535156 137.820312 319.828125 138.730469 C 320.125 139.636719 320.371094 140.554688 320.570312 141.488281 C 320.773438 142.421875 320.925781 143.363281 321.03125 144.308594 C 321.140625 145.257812 321.199219 146.207031 321.210938 147.164062 C 321.21875 148.117188 321.183594 149.066406 321.097656 150.019531 C 321.015625 150.96875 320.882812 151.910156 320.703125 152.847656 C 320.523438 153.785156 320.296875 154.710938 320.027344 155.625 C 319.753906 156.539062 319.4375 157.4375 319.074219 158.320312 C 318.710938 159.203125 318.308594 160.066406 317.859375 160.90625 C 317.410156 161.75 316.917969 162.566406 316.386719 163.359375 C 315.855469 164.152344 315.289062 164.914062 314.679688 165.648438 C 314.074219 166.386719 313.429688 167.089844 312.75 167.757812 L 231.6875 247.941406 C 230.390625 249.222656 228.984375 250.371094 227.464844 251.382812 C 225.949219 252.398438 224.347656 253.257812 222.664062 253.960938 C 220.980469 254.667969 219.246094 255.207031 217.460938 255.578125 C 215.675781 255.949219 213.867188 256.148438 212.042969 256.175781 Z M 212.042969 256.175781 "/></g><g style="fill:#152039;fill-opacity:1;"><g transform="translate(45.784938, 323.236915)"><path style="stroke:none" d="M 3.109375 -39.359375 L 31.765625 -39.359375 L 31.765625 -31.078125 L 15.53125 -31.078125 L 15.53125 -23.890625 L 29.21875 -23.890625 L 29.21875 -16.4375 L 15.53125 -16.4375 L 15.53125 -8.421875 L 31.703125 -8.421875 L 31.703125 0 L 3.109375 0 Z M 3.109375 -39.359375 "/></g></g><g style="fill:#152039;fill-opacity:1;"><g transform="translate(79.350631, 323.236915)"><path style="stroke:none" d="M 23.28125 -31.765625 L 35.640625 -31.765625 L 25.96875 0 L 9.59375 0 L -0.0625 -31.765625 L 12.296875 -31.765625 L 17.46875 -7.390625 L 18.15625 -7.390625 Z M 23.28125 -31.765625 "/></g></g><g style="fill:#152039;fill-opacity:1;"><g transform="translate(114.91921, 323.236915)"><path style="stroke:none" d="M 22.09375 -8.28125 C 23.25 -8.28125 25.390625 -8.394531 28.515625 -8.625 C 28.929688 -8.625 29.691406 -8.671875 30.796875 -8.765625 L 31.84375 -1.65625 C 28.289062 0 23.6875 0.828125 18.03125 0.828125 C 12.726562 0.828125 8.660156 -0.503906 5.828125 -3.171875 C 3.003906 -5.847656 1.59375 -9.878906 1.59375 -15.265625 C 1.59375 -18.023438 1.945312 -20.691406 2.65625 -23.265625 C 3.375 -25.847656 4.191406 -27.644531 5.109375 -28.65625 C 6.078125 -29.675781 7.875 -30.550781 10.5 -31.28125 C 13.125 -32.019531 15.722656 -32.390625 18.296875 -32.390625 C 22.441406 -32.390625 25.550781 -31.648438 27.625 -30.171875 C 29.695312 -28.703125 31.054688 -26.664062 31.703125 -24.0625 C 32.347656 -21.46875 32.671875 -17.984375 32.671875 -13.609375 C 29.535156 -13.421875 26.472656 -13.328125 23.484375 -13.328125 L 13.671875 -13.328125 C 13.671875 -11.859375 13.976562 -10.753906 14.59375 -10.015625 C 15.21875 -9.273438 16.101562 -8.800781 17.25 -8.59375 C 18.40625 -8.382812 20.019531 -8.28125 22.09375 -8.28125 Z M 14.359375 -24.171875 C 14.085938 -24.035156 13.878906 -23.4375 13.734375 -22.375 C 13.597656 -21.3125 13.507812 -20.113281 13.46875 -18.78125 L 17.0625 -18.78125 C 19.21875 -18.78125 20.78125 -18.804688 21.75 -18.859375 C 21.75 -21.066406 21.4375 -22.628906 20.8125 -23.546875 C 20.195312 -24.472656 19.128906 -24.9375 17.609375 -24.9375 C 16.367188 -24.9375 15.285156 -24.679688 14.359375 -24.171875 Z M 14.359375 -24.171875 "/></g></g><g style="fill:#152039;fill-opacity:1;"><g transform="translate(148.899302, 323.236915)"><path style="stroke:none" d="M 33.5625 -29.765625 C 33.976562 -29.253906 34.289062 -27.984375 34.5 -25.953125 C 34.707031 -23.929688 34.8125 -20.851562 34.8125 -16.71875 L 34.8125 0 L 23 0 L 23 -19.40625 C 23 -20.875 22.882812 -21.796875 22.65625 -22.171875 C 22.28125 -22.628906 21.425781 -22.859375 20.09375 -22.859375 C 19.445312 -22.859375 18.960938 -22.835938 18.640625 -22.796875 C 17.359375 -22.742188 16.023438 -22.441406 14.640625 -21.890625 L 14.640625 0 L 2.828125 0 L 2.828125 -31.765625 L 12.4375 -31.765625 L 13.75 -26.453125 C 17.0625 -30.453125 21.019531 -32.453125 25.625 -32.453125 C 27.28125 -32.453125 28.832031 -32.222656 30.28125 -31.765625 C 31.726562 -31.304688 32.820312 -30.640625 33.5625 -29.765625 Z M 33.5625 -29.765625 "/></g></g><g style="fill:#152039;fill-opacity:1;"><g transform="translate(186.332649, 323.236915)"><path style="stroke:none" d="M 17.46875 -13.046875 C 17.46875 -12.222656 17.488281 -11.359375 17.53125 -10.453125 C 17.582031 -9.554688 17.722656 -8.992188 17.953125 -8.765625 C 18.273438 -8.441406 19.40625 -8.28125 21.34375 -8.28125 L 23.6875 -8.359375 C 24.101562 -6.148438 24.3125 -3.59375 24.3125 -0.6875 C 23.4375 -0.363281 22.15625 -0.0664062 20.46875 0.203125 C 18.789062 0.484375 17.191406 0.625 15.671875 0.625 C 12.492188 0.625 10.039062 -0.078125 8.3125 -1.484375 C 6.59375 -2.890625 5.734375 -5.066406 5.734375 -8.015625 L 5.734375 -25 L 0.546875 -25 L 0.546875 -31.28125 L 5.734375 -31.765625 L 8.84375 -39.359375 L 17.46875 -39.84375 L 17.46875 -31.765625 L 24.796875 -31.765625 L 24.796875 -25 L 17.46875 -25 Z M 17.46875 -13.046875 "/></g></g><g style="fill:#152039;fill-opacity:1;"><g transform="translate(211.817724, 323.236915)"><path style="stroke:none" d="M 3.515625 -39.359375 L 16.015625 -39.359375 L 16.015625 -24.9375 L 26.734375 -24.9375 L 26.734375 -39.359375 L 39.234375 -39.359375 L 39.234375 0 L 26.734375 0 L 26.734375 -16.984375 L 16.015625 -16.984375 L 16.015625 0 L 3.515625 0 Z M 3.515625 -39.359375 "/></g></g><g style="fill:#152039;fill-opacity:1;"><g transform="translate(254.569094, 323.236915)"><path style="stroke:none" d="M 34.59375 -31.765625 L 34.59375 0 L 25 0 L 23.6875 -5.3125 C 20.375 -1.3125 16.414062 0.6875 11.8125 0.6875 C 10.15625 0.6875 8.597656 0.457031 7.140625 0 C 5.691406 -0.457031 4.601562 -1.125 3.875 -2 C 3.457031 -2.507812 3.144531 -3.773438 2.9375 -5.796875 C 2.726562 -7.828125 2.625 -10.914062 2.625 -15.0625 L 2.625 -31.765625 L 14.4375 -31.765625 L 14.4375 -15.1875 C 14.4375 -14.269531 14.457031 -13.1875 14.5 -11.9375 C 14.550781 -10.695312 14.691406 -9.914062 14.921875 -9.59375 C 15.242188 -9.132812 16.164062 -8.90625 17.6875 -8.90625 L 18.78125 -8.984375 C 20.070312 -9.023438 21.410156 -9.320312 22.796875 -9.875 L 22.796875 -31.765625 Z M 34.59375 -31.765625 "/></g></g><g style="fill:#152039;fill-opacity:1;"><g transform="translate(292.002441, 323.236915)"><path style="stroke:none" d="M 24.171875 -32.453125 C 27.765625 -32.453125 30.535156 -31.367188 32.484375 -29.203125 C 34.441406 -27.046875 35.421875 -23.226562 35.421875 -17.75 C 35.421875 -13.738281 35.019531 -10.316406 34.21875 -7.484375 C 33.414062 -4.660156 32.507812 -2.859375 31.5 -2.078125 C 30.300781 -1.109375 28.523438 -0.394531 26.171875 0.0625 C 23.828125 0.53125 21.15625 0.765625 18.15625 0.765625 C 15.851562 0.765625 13.273438 0.585938 10.421875 0.234375 C 7.566406 -0.109375 5.015625 -0.644531 2.765625 -1.375 L 2.765625 -41.4375 L 14.703125 -41.921875 L 14.703125 -35.421875 C 14.703125 -35.054688 14.691406 -34.207031 14.671875 -32.875 C 14.648438 -31.539062 14.59375 -30.421875 14.5 -29.515625 C 14.40625 -28.617188 14.269531 -27.941406 14.09375 -27.484375 L 14.5 -27 C 15.5625 -28.613281 16.894531 -29.925781 18.5 -30.9375 C 20.113281 -31.945312 22.003906 -32.453125 24.171875 -32.453125 Z M 22.234375 -7.53125 C 22.515625 -7.988281 22.757812 -9.066406 22.96875 -10.765625 C 23.175781 -12.472656 23.28125 -14.109375 23.28125 -15.671875 C 23.28125 -17.515625 23.195312 -18.960938 23.03125 -20.015625 C 22.875 -21.078125 22.484375 -21.921875 21.859375 -22.546875 C 21.234375 -23.171875 20.273438 -23.484375 18.984375 -23.484375 C 17.835938 -23.484375 16.367188 -23.320312 14.578125 -23 L 14.578125 -7.390625 C 16.273438 -7.109375 18.046875 -6.96875 19.890625 -6.96875 C 21.222656 -6.96875 22.003906 -7.15625 22.234375 -7.53125 Z M 22.234375 -7.53125 "/></g></g></g></svg>